<svg xmlns="http://www.w3.org/2000/svg" version="1.1" xmlns:xlink="http://www.w3.org/1999/xlink" xmlns:svgjs="http://svgjs.dev/svgjs" width="1500" height="340" viewBox="0 0 1500 340"><g transform="matrix(1,0,0,1,-0.9090909090909918,-1.713176634412406)"><svg viewBox="0 0 396 90" data-background-color="#ffffff" preserveAspectRatio="xMidYMid meet" height="340" width="1500" xmlns="http://www.w3.org/2000/svg" xmlns:xlink="http://www.w3.org/1999/xlink"><g id="tight-bounds" transform="matrix(1,0,0,1,0.2400000000000091,0.45348793263858056)"><svg viewBox="0 0 395.52 89.09302413472282" height="89.09302413472282" width="395.52"><g><svg viewBox="0 0 523.3644854132225 117.89068752573075" height="89.09302413472282" width="395.52"><g transform="matrix(1,0,0,1,127.84448541322254,0)"><svg viewBox="0 0 395.52 117.89068752573075" height="117.89068752573075" width="395.52"><g id="textblocktransform"><svg viewBox="0 0 395.52 117.89068752573075" height="117.89068752573075" width="395.52" id="textblock"><g><svg viewBox="0 0 395.52 117.89068752573075" height="117.89068752573075" width="395.52"><g transform="matrix(1,0,0,1,0,0)"><svg width="395.52" viewBox="-0.85 -35.45 121.44 36.2" height="117.89068752573075" data-palette-color="#3c2c32"><path d="M6.15 0L-0.85 0 13.9-35.45 14.4-35.45 29.2 0 22.4 0 20.45-5.05 8-5.05 6.15 0ZM14.1-22.2L13.3-19.4 9.8-9.9 18.6-9.9 14.95-19.4 14.1-22.2ZM38.9 0L32.55 0 32.55-34.85 38.9-34.85 38.9-17.5 50-34.85 57.35-34.85 45.47-17.55 58.15 0 50.15 0 38.9-16.73 38.9 0ZM66.84 0.7L66.84 0.7Q64.55 0.7 63.03-0.33 61.52-1.35 60.78-3.05 60.05-4.75 60.05-6.8L60.05-6.8Q60.05-7.95 60.63-9.33 61.22-10.7 62.72-11.95 64.22-13.2 66.95-14 69.67-14.8 73.95-14.8L73.95-14.8 73.95-15.95Q73.95-17.8 73.06-19.03 72.17-20.25 69.5-20.25L69.5-20.25Q67.55-20.25 65.68-19.59 63.82-18.93 62.95-17.95L62.95-17.95 60.95-22.75Q62.45-23.78 64.96-24.64 67.47-25.5 70.55-25.5L70.55-25.5Q74.25-25.5 76.3-24.38 78.34-23.25 79.17-21.19 80-19.13 80-16.35L80-16.35 80 0 74.65 0 74.2-3.55Q71.59 0.7 66.84 0.7ZM69.5-4.1L69.5-4.1Q70.62-4.1 71.91-5.01 73.2-5.93 73.95-7.35L73.95-7.35 73.95-10.9Q73.7-10.95 73.41-10.95 73.12-10.95 72.75-10.95L72.75-10.95Q71.37-10.95 69.86-10.64 68.34-10.33 67.3-9.55 66.25-8.78 66.25-7.4L66.25-7.4Q66.25-5.6 67.05-4.85 67.84-4.1 69.5-4.1ZM92.69 0L86.44 0 86.44-24.9 92.09-24.9 92.39-20.5Q92.79-21.48 93.63-22.58 94.47-23.68 95.96-24.44 97.44-25.2 99.79-25.2L99.79-25.2Q100.52-25.2 101.07-25.1 101.62-25 102.09-24.8L102.09-24.8 100.69-18.25Q99.89-19.05 98.24-19.05L98.24-19.05Q96.32-19.05 95.09-18.26 93.87-17.48 93.28-16.5 92.69-15.53 92.69-15L92.69-15 92.69 0ZM113.99 0.75L113.99 0.75Q109.77 0.75 108.28-1.45 106.79-3.65 106.79-8.1L106.79-8.1 106.79-19.65 103.54-19.65 103.54-24.9 107.04-24.9 107.39-30.15 112.84-32.5 112.84-24.9 118.99-24.9 118.99-19.65 112.84-19.65 112.84-8.25Q112.84-6.08 113.45-5.24 114.06-4.4 115.14-4.4L115.14-4.4Q116.24-4.4 117.47-4.98 118.69-5.55 119.39-6.15L119.39-6.15 120.59-1.1Q119.81-0.55 118.58-0.14 117.34 0.28 116.08 0.51 114.81 0.75 113.99 0.75Z" opacity="1" transform="matrix(1,0,0,1,0,0)" fill="#3c2c32" class="wordmark-text-0" data-fill-palette-color="primary" id="text-0"></path></svg></g></svg></g></svg></g></svg></g><g transform="matrix(1,0,0,1,0,6.809366111486213)"><svg viewBox="0 0 100.01332346489814 104.27195530275833" height="104.27195530275833" width="100.01332346489814"><g><svg xmlns="http://www.w3.org/2000/svg" xmlns:xlink="http://www.w3.org/1999/xlink" version="1.1" x="0" y="0" viewBox="11.3 9.6 77.5 80.80000000000001" enable-background="new 0 0 100 100" xml:space="preserve" height="104.27195530275833" width="100.01332346489814" class="icon-icon-0" data-fill-palette-color="accent" id="icon-0"><g fill="#fbb168" data-fill-palette-color="accent"><g fill="#fbb168" data-fill-palette-color="accent"><path d="M81.9 47.2V22.9H32.3V9.6H11.3V17H24.9V64.1H88.5V56.7H32.3V47.1H81.9zM32.3 29.1H75.2V41.1H32.3z" fill="#fbb168" data-fill-palette-color="accent"></path></g><path d="M35.9 68C29.7 68 24.7 73 24.7 79.2S29.7 90.4 35.9 90.4 47.1 85.4 47.1 79.2 42.1 68 35.9 68M35.9 82.5C34.1 82.5 32.6 81 32.6 79.2S34.1 75.9 35.9 75.9 39.2 77.4 39.2 79.2 37.7 82.5 35.9 82.5" fill="#fbb168" data-fill-palette-color="accent"></path><path d="M77.6 68C71.4 68 66.4 73 66.4 79.2S71.4 90.4 77.6 90.4 88.8 85.4 88.8 79.2 83.8 68 77.6 68M77.6 82.5C75.8 82.5 74.3 81 74.3 79.2S75.8 75.9 77.6 75.9 80.9 77.4 80.9 79.2 79.4 82.5 77.6 82.5" fill="#fbb168" data-fill-palette-color="accent"></path></g></svg></g></svg></g></svg></g><defs></defs></svg><rect width="395.52" height="89.09302413472282" fill="none" stroke="none" visibility="hidden"></rect></g></svg></g></svg>